<svg width="24" height="24" viewBox="0 0 24 24" fill="none" xmlns="http://www.w3.org/2000/svg">
<path d="M12.1449 11.5029L16.8601 6.78761C17.0421 6.61185 17.0472 6.32185 16.8714 6.13986C16.6957 5.95787 16.4057 5.95283 16.2237 6.12859C16.2199 6.13227 16.2161 6.13602 16.2124 6.13986L11.4971 10.8551L6.78188 6.13984C6.5999 5.96407 6.3099 5.96912 6.13414 6.15111C5.96267 6.32864 5.96267 6.61008 6.13414 6.78761L10.8494 11.5029L6.13414 16.2181C5.95529 16.397 5.95529 16.687 6.13414 16.8659C6.31301 17.0447 6.60301 17.0447 6.78188 16.8659L11.4971 12.1506L16.2124 16.8659C16.3944 17.0416 16.6844 17.0366 16.8601 16.8546C17.0316 16.6771 17.0316 16.3956 16.8601 16.2181L12.1449 11.5029Z" fill="#2A364E"/>
</svg>
