<svg width="24" height="24" viewBox="0 0 24 24" fill="none" xmlns="http://www.w3.org/2000/svg">
<path d="M15.6875 11.6875H12.3125V8.3125C12.3125 8.13991 12.1726 8 12 8C11.8274 8 11.6875 8.13991 11.6875 8.3125V11.6875H8.3125C8.13991 11.6875 8 11.8274 8 12C8 12.1726 8.13991 12.3125 8.3125 12.3125H11.6875V15.6875C11.6875 15.8601 11.8274 16 12 16C12.1726 16 12.3125 15.8601 12.3125 15.6875V12.3125H15.6875C15.8601 12.3125 16 12.1726 16 12C16 11.8274 15.8601 11.6875 15.6875 11.6875Z" fill="#2A364E"/>
</svg>
