<svg width="24" height="25" viewBox="0 0 24 25" fill="none" xmlns="http://www.w3.org/2000/svg">
<path d="M19.4462 4.90237C18.4635 3.84605 17.0864 3.24501 15.6436 3.24279C14.1996 3.24446 12.8211 3.84517 11.8368 4.9017L11.5014 5.25617L11.1659 4.9017C9.21288 2.79967 5.92554 2.67895 3.82355 4.63202C3.73041 4.71859 3.64045 4.80851 3.55387 4.9017C1.48204 7.13642 1.48204 10.5901 3.55387 12.8248L11.0084 20.6861C11.2663 20.9584 11.6961 20.97 11.9684 20.7121C11.9773 20.7037 11.986 20.695 11.9944 20.6861L19.4463 12.8248C21.5179 10.5903 21.5179 7.13685 19.4462 4.90237ZM18.4637 11.8897H18.463L11.5014 19.2323L4.53918 11.8897C2.95642 10.1822 2.95642 7.5436 4.53918 5.83607C5.97651 4.27822 8.40463 4.18054 9.96248 5.61788C10.0381 5.68766 10.1109 5.76044 10.1807 5.83607L11.0084 6.70933C11.2812 6.98037 11.7216 6.98037 11.9944 6.70933L12.8222 5.83675C14.2595 4.2789 16.6876 4.18122 18.2455 5.61855C18.3211 5.68834 18.3939 5.76111 18.4637 5.83675C20.0602 7.54699 20.0719 10.1904 18.4637 11.8897Z" fill="#2A364E"/>
</svg>
