<svg width="58" height="58" viewBox="0 0 58 58" fill="none" xmlns="http://www.w3.org/2000/svg">
<path d="M35.5438 27.8623V20.3511H34.1826L28.4673 27.9361L28.6149 28.6823C28.6368 28.7751 28.6873 28.853 28.7665 28.916C28.8459 28.9789 28.9402 29.0103 29.0494 29.0103H34.2564V32.1017H35.5437V29.0104H37.0033C37.1126 29.0104 37.1934 28.9802 37.2453 28.9202C37.2972 28.8601 37.3232 28.7864 37.3232 28.6988V27.8623H35.5438ZM34.2686 22.557C34.2604 22.7209 34.2563 22.8741 34.2563 23.0162V27.8624H30.0497L34.3218 22.0486C34.2946 22.2234 34.2767 22.3931 34.2686 22.557Z" fill="#2A364E"/>
<path d="M27.1798 30.8555C27.0869 30.7627 26.9611 30.7161 26.8026 30.7161H22.8666C22.659 30.7161 22.4429 30.734 22.2188 30.7694C21.9948 30.8049 21.7734 30.8529 21.5546 30.9129L24.646 27.7478C24.974 27.4143 25.2842 27.0877 25.5767 26.7679C25.8692 26.4481 26.1275 26.1174 26.3516 25.7757C26.5756 25.4339 26.7534 25.0772 26.8846 24.7055C27.0158 24.3339 27.0814 23.9292 27.0814 23.4919C27.0814 22.978 26.9912 22.5187 26.8108 22.1144C26.6304 21.7099 26.383 21.3667 26.0687 21.0853C25.7544 20.8038 25.3813 20.5892 24.9494 20.4416C24.5175 20.294 24.053 20.2202 23.5554 20.2202C23.0525 20.2202 22.5837 20.2926 22.1491 20.4375C21.7144 20.5825 21.3291 20.7942 20.9928 21.073C20.6567 21.3519 20.3793 21.6977 20.1605 22.1104C19.9418 22.523 19.7942 22.9975 19.7177 23.5331L20.4802 23.6643C20.5185 23.6698 20.5526 23.6739 20.5827 23.6766C20.6129 23.6792 20.6415 23.6807 20.6689 23.6807C20.8109 23.6807 20.9258 23.6452 21.0133 23.5741C21.1008 23.503 21.1664 23.3881 21.2101 23.2296C21.2648 22.9728 21.3591 22.7377 21.493 22.5245C21.6268 22.3113 21.7908 22.1268 21.9849 21.971C22.1791 21.8152 22.4017 21.6936 22.6533 21.6061C22.9049 21.5186 23.1781 21.475 23.4733 21.475C23.7685 21.475 24.0447 21.5173 24.3015 21.602C24.5584 21.6867 24.7826 21.8138 24.9739 21.9833C25.1652 22.1529 25.3157 22.3673 25.425 22.627C25.5342 22.8867 25.5889 23.1887 25.5889 23.5331C25.5889 23.8775 25.5397 24.2014 25.4413 24.5047C25.3429 24.8081 25.2021 25.1073 25.0191 25.4025C24.836 25.6977 24.6158 25.9915 24.359 26.284C24.1021 26.5766 23.8178 26.8811 23.5061 27.1984L19.7423 30.9785C19.6494 31.0714 19.5824 31.1726 19.5415 31.2819C19.5005 31.3912 19.48 31.4978 19.48 31.6017V32.1019H27.3192V31.2163C27.3192 31.0687 27.2726 30.9483 27.1798 30.8555Z" fill="#2A364E"/>
<path d="M47.4269 19.7114C47.2527 19.2937 46.7726 19.096 46.3544 19.2705C45.9364 19.4449 45.739 19.925 45.9134 20.343C46.8733 22.6432 47.36 25.0849 47.36 27.6C47.36 37.9995 38.8993 46.46 28.5 46.46C18.1006 46.46 9.63992 37.9995 9.63992 27.6C9.63992 17.2005 18.1006 8.73997 28.5 8.73997C30.3949 8.73997 32.2624 9.02224 34.055 9.57396L29.7299 12.071C29.3377 12.2974 29.2034 12.7988 29.4299 13.191C29.5816 13.4541 29.8573 13.6012 30.1408 13.6012C30.2799 13.6012 30.4208 13.5657 30.5499 13.4912L36.2311 10.2111C36.6233 9.98471 36.7576 9.48326 36.5312 9.09108L33.2512 3.41007C33.025 3.0179 32.5234 2.88357 32.1312 3.11001C31.739 3.33645 31.6047 3.8379 31.8311 4.23007L33.9046 7.82157C32.1506 7.3433 30.3368 7.10005 28.5 7.10005C17.1962 7.10005 8 16.2964 8 27.6001C8 38.9038 17.1961 48.1001 28.5 48.1001C39.8039 48.1001 49 38.9038 49 27.6001C49 24.867 48.4708 22.2128 47.4269 19.7114Z" fill="#2A364E"/>
</svg>
