<svg width="58" height="58" viewBox="0 0 58 58" fill="none" xmlns="http://www.w3.org/2000/svg">
<path d="M54.5355 43.8109H50.9458V42.2433H54.0362C54.5823 41.009 54.8644 39.6741 54.8644 38.3244C54.8644 36.9746 54.5823 35.6398 54.0362 34.4055H21.162C19.5725 34.4055 11.3482 35.0254 8.94436 35.9589L8.52895 36.1196C7.05387 36.6902 3.13495 38.2053 3.13495 39.1082V41.4595C3.13495 41.6674 3.21753 41.8668 3.36452 42.0137C3.5115 42.1607 3.71086 42.2433 3.91873 42.2433H6.27009V43.8109H3.91873C3.29512 43.8109 2.69704 43.5631 2.25608 43.1222C1.81511 42.6812 1.56738 42.0831 1.56738 41.4595V39.1082C1.56738 37.2765 4.33963 36.0585 7.96384 34.6578L8.37611 34.5011C11.1632 33.4155 19.7762 32.8379 21.162 32.8379H54.5355C54.682 32.8372 54.8257 32.8777 54.9504 32.9545C55.0751 33.0314 55.1757 33.1417 55.2409 33.2729C56.0266 34.841 56.4358 36.5708 56.4358 38.3248C56.4358 40.0787 56.0266 41.8085 55.2409 43.3767C55.1756 43.5077 55.0749 43.6178 54.9502 43.6946C54.8256 43.7713 54.6819 43.8116 54.5355 43.8109Z" fill="#2A364E"/>
<path d="M15.6755 42.2432H20.1353V43.8107H15.6755V42.2432Z" fill="#2A364E"/>
<path d="M15.6799 42.2466H41.6799V43.8166H15.6799V42.2466Z" fill="#2A364E"/>
<path d="M15.8905 34.7667L15.4602 33.2595C17.2629 32.7438 18.5256 31.6136 19.9858 30.2976C22.613 27.9376 25.8814 25 33.7028 25C41.1801 25 45.0676 28.1163 47.9128 30.3916C49.6191 31.7586 50.9664 32.8378 52.5136 32.8378V34.4054C50.4162 34.4054 48.8024 33.1129 46.933 31.6151C44.1271 29.3665 40.6299 26.5676 33.7028 26.5676C26.4818 26.5676 23.588 29.1689 21.0345 31.4646C19.4959 32.8465 18.0436 34.1522 15.8905 34.7667Z" fill="#2A364E"/>
<path d="M46.2433 48.5135C45.1582 48.5135 44.0974 48.1917 43.1952 47.5889C42.2929 46.986 41.5897 46.1291 41.1745 45.1266C40.7592 44.1241 40.6506 43.0209 40.8623 41.9567C41.074 40.8924 41.5965 39.9148 42.3638 39.1475C43.1311 38.3802 44.1087 37.8576 45.173 37.646C46.2372 37.4343 47.3404 37.5429 48.3429 37.9582C49.3454 38.3734 50.2023 39.0766 50.8052 39.9789C51.408 40.8811 51.7298 41.9419 51.7298 43.027C51.7282 44.4816 51.1496 45.8762 50.121 46.9047C49.0925 47.9333 47.6979 48.5118 46.2433 48.5135ZM46.2433 39.1081C45.4682 39.1081 44.7106 39.3379 44.0661 39.7686C43.4216 40.1992 42.9193 40.8112 42.6227 41.5273C42.3261 42.2434 42.2485 43.0314 42.3997 43.7916C42.5509 44.5518 42.9242 45.25 43.4722 45.7981C44.0203 46.3462 44.7186 46.7194 45.4788 46.8706C46.239 47.0219 47.0269 46.9442 47.743 46.6476C48.4591 46.351 49.0712 45.8487 49.5018 45.2043C49.9324 44.5598 50.1622 43.8021 50.1622 43.027C50.161 41.988 49.7477 40.992 49.013 40.2573C48.2784 39.5226 47.2823 39.1093 46.2433 39.1081Z" fill="#2A364E"/>
<path d="M10.9731 48.5135C9.88794 48.5135 8.82718 48.1917 7.92493 47.5889C7.02269 46.986 6.31947 46.1291 5.90421 45.1266C5.48895 44.1241 5.3803 43.0209 5.592 41.9567C5.80369 40.8924 6.32623 39.9148 7.09353 39.1475C7.86083 38.3802 8.83843 37.8576 9.9027 37.646C10.967 37.4343 12.0701 37.5429 13.0726 37.9582C14.0752 38.3734 14.932 39.0766 15.5349 39.9789C16.1378 40.8811 16.4595 41.9419 16.4595 43.027C16.4579 44.4816 15.8793 45.8762 14.8508 46.9047C13.8222 47.9333 12.4277 48.5118 10.9731 48.5135ZM10.9731 39.1081C10.198 39.1081 9.44029 39.3379 8.79583 39.7686C8.15136 40.1992 7.64907 40.8112 7.35245 41.5273C7.05584 42.2434 6.97823 43.0314 7.12944 43.7916C7.28066 44.5518 7.6539 45.25 8.20197 45.7981C8.75004 46.3462 9.44832 46.7194 10.2085 46.8706C10.9687 47.0219 11.7567 46.9442 12.4728 46.6476C13.1889 46.351 13.8009 45.8487 14.2315 45.2043C14.6621 44.5598 14.892 43.8021 14.892 43.027C14.8907 41.988 14.4775 40.992 13.7428 40.2573C13.0081 39.5226 12.012 39.1093 10.9731 39.1081Z" fill="#2A364E"/>
<path d="M32.1353 25.7954H33.7028V33.6215H32.1353V25.7954Z" fill="#2A364E"/>
</svg>
