<svg width="24" height="25" viewBox="0 0 24 25" fill="none" xmlns="http://www.w3.org/2000/svg">
<path d="M7.76599 14.7428H7.76695C7.76775 14.7428 7.76855 14.7427 7.76935 14.7427H18.9239C19.1985 14.7427 19.4399 14.5576 19.5154 14.2894L21.9763 5.53939C22.0294 5.35075 21.9922 5.14795 21.876 4.99137C21.7597 4.8348 21.5779 4.74268 21.3848 4.74268H6.3471L5.9073 2.7321C5.84466 2.44613 5.59504 2.24268 5.30665 2.24268H1.61524C1.27541 2.24268 1 2.52246 1 2.86768C1 3.21289 1.27541 3.49268 1.61524 3.49268H4.81318C4.89104 3.84896 6.9178 13.1143 7.03443 13.6473C6.38059 13.936 5.92188 14.5983 5.92188 15.3677C5.92188 16.4015 6.74989 17.2427 7.76759 17.2427H18.9239C19.2637 17.2427 19.5391 16.9629 19.5391 16.6177C19.5391 16.2725 19.2637 15.9927 18.9239 15.9927H7.76759C7.42841 15.9927 7.15235 15.7122 7.15235 15.3677C7.15235 15.0236 7.42745 14.7437 7.76599 14.7428ZM20.5691 5.99268L18.4597 13.4927H8.26106L6.62043 5.99268H20.5691Z" fill="#2A364E"/>
<path d="M7 19.2427C7 20.3455 7.89722 21.2427 9 21.2427C10.1028 21.2427 11 20.3455 11 19.2427C11 18.1399 10.1028 17.2427 9 17.2427C7.89722 17.2427 7 18.1399 7 19.2427ZM9 18.576C9.36753 18.576 9.66667 18.8751 9.66667 19.2427C9.66667 19.6102 9.36753 19.9093 9 19.9093C8.63247 19.9093 8.33333 19.6102 8.33333 19.2427C8.33333 18.8751 8.63247 18.576 9 18.576Z" fill="#2A364E"/>
<path d="M16 19.2427C16 20.3455 16.8972 21.2427 18 21.2427C19.1028 21.2427 20 20.3455 20 19.2427C20 18.1399 19.1028 17.2427 18 17.2427C16.8972 17.2427 16 18.1399 16 19.2427ZM18 18.576C18.3675 18.576 18.6667 18.8751 18.6667 19.2427C18.6667 19.6102 18.3675 19.9093 18 19.9093C17.6325 19.9093 17.3333 19.6102 17.3333 19.2427C17.3333 18.8751 17.6325 18.576 18 18.576Z" fill="#2A364E"/>
</svg>
