<svg width="24" height="25" viewBox="0 0 24 25" fill="none" xmlns="http://www.w3.org/2000/svg">
<path d="M19.8045 18.926L15.2545 14.3899C16.1359 13.3045 16.6665 11.9254 16.6665 10.4233C16.6665 6.94195 13.8252 4.10925 10.3332 4.10925C6.84128 4.10925 4 6.94192 4 10.4233C4 13.9047 6.84131 16.7374 10.3333 16.7374C11.8399 16.7374 13.2232 16.2083 14.3119 15.3297L18.8618 19.8658C18.9918 19.9954 19.1625 20.0606 19.3332 20.0606C19.5039 20.0606 19.6745 19.9954 19.8045 19.8658C20.0652 19.6059 20.0652 19.1859 19.8045 18.926ZM10.3333 15.4081C7.57596 15.4081 5.33333 13.1722 5.33333 10.4233C5.33333 7.67434 7.57596 5.43851 10.3333 5.43851C13.0906 5.43851 15.3332 7.67434 15.3332 10.4233C15.3332 13.1722 13.0906 15.4081 10.3333 15.4081Z" fill="#2A364E"/>
</svg>
